<?xml version="1.0" encoding="UTF-8"?>
<svg id="_图层_2" data-name="图层 2" xmlns="http://www.w3.org/2000/svg" viewBox="0 0 248.08299 87.9379">
  <defs>
    <style>
      .cls-1 {
        fill: red;
        stroke-width: 0px;
      }
    </style>
  </defs>
  <g id="_图层_1-2" data-name="图层 1">
    <g>
      <path class="cls-1" d="m21.25,22.5004H4C5.5,45.0004,0,62.0551,0,62.0551l9.25,16.9453c12.25-5.25,12-56.5,12-56.5"/>
      <path class="cls-1" d="m77.2504,22.5004h-17.25s-.25,51.25,12,56.5l9.25-16.9453s-5.5-17.0547-4-39.5547"/>
      <path class="cls-1" d="m32.125,74.0424h-10.875c0,12.708,10.75,13.833,10.75,13.833h5.5c11.0419,0,11.5-12.625,11.5-12.625V0h-16.875v74.0424Z"/>
      <path class="cls-1" d="m90.1665,38.0004h11.2397l-8.5728,17.5s-5,9.833,3,10.167h18.6661l7.4589-13.542h-9.3222c-1.187,0-1.9546-1.2539-1.4146-2.311l13.9444-27.314h-16.1665l-.959,1.958h-1.0713c-1.187,0-1.9536-1.2539-1.4151-2.311L117.1665.0004h-16.167l-13.833,27.833s-5,9.834,3,10.167"/>
      <path class="cls-1" d="m92.625,71.1254s-2.063.1875-3.438-1.1865l-8.3741,16.125s1.375,1.874,4.1871,1.874h20.75l8.875-16.8125h-22Z"/>
      <polygon class="cls-1" points="155.333 22.5004 165.99999 22.5004 165.99999 5.3334 127.833 5.3334 127.833 22.5004 138.6669 22.5004 138.6669 71.6674 122.666 71.6674 114.625 87.8754 171.49999 87.8754 171.49999 71.6674 155.333 71.6674 155.333 22.5004"/>
      <path class="cls-1" d="m231.79099,35.1674h-1.9629v-11.1059c0-10.398-8.4297-18.8262-18.8262-18.8262h-6.5019V.0004h-16.5v5.2349h-10.3594v16.833h10.3594v13.0991h-16.5v16.833h16.5v35.875h16.5v-35.875h22.707c2.2314,0,4.043,1.8101,4.043,4.043v17.6758h-15.7393c0,7.8183,6.3379,14.1562,14.1562,14.1562h4.2598c7.8184,0,14.1563-6.3379,14.1563-14.1562v-22.2598c0-8.998-7.294-16.292-16.292-16.292m-27.291-13.0991h5.9287c1.417,0,2.5664,1.148,2.5664,2.5664v10.5327h-8.4951v-13.0991Z"/>
      <path class="cls-1" d="m247.83299,13.5004c0-4.5097-3.6563-8.167-8.1661-8.167-4.51069,0-8.1669,3.6573-8.1669,8.167v8.167h8.1669c4.5098,0,8.1661-3.6567,8.1661-8.167"/>
    </g>
  </g>
</svg>